REM DIRINDEX 1\2,1\3,1\4,1\6,1\5\7,1\5\8
REM DIRNAME cjc114,folder01,folder02,folder03,folder04,folder05,folder06,folder07
TITLE ""
FILE "DB4500_5th_6C_51.mp3" MP3
  TRACK 01 AUDIO
    TITLE "0:"
    INDEX 01 00:00:00
  TRACK 02 AUDIO
    TITLE "2:cjc114_5141"
    INDEX 01 00:00:01
  TRACK 03 AUDIO
    TITLE "0:"
    INDEX 01 00:01:17
  TRACK 04 AUDIO
    TITLE "3:cjc114_5142"
    INDEX 01 00:01:36
  TRACK 05 AUDIO
    TITLE "0:"
    INDEX 01 00:02:59
  TRACK 06 AUDIO
    TITLE "4:cjc114_5143"
    INDEX 01 00:03:06
  TRACK 07 AUDIO
    TITLE "0:"
    INDEX 01 00:06:39
  TRACK 08 AUDIO
    TITLE "2:cjc114_5144"
    INDEX 01 00:07:11
  TRACK 09 AUDIO
    TITLE "0:"
    INDEX 01 00:08:24
  TRACK 10 AUDIO
    TITLE "3:cjc114_5145"
    INDEX 01 00:08:46
  TRACK 11 AUDIO
    TITLE "0:"
    INDEX 01 00:09:55
  TRACK 12 AUDIO
    TITLE "4:cjc114_5146"
    INDEX 01 00:10:02
  TRACK 13 AUDIO
    TITLE "0:"
    INDEX 01 00:13:14
  TRACK 14 AUDIO
    TITLE "2:cjc114_5147"
    INDEX 01 00:13:55
  TRACK 15 AUDIO
    TITLE "0:"
    INDEX 01 00:15:17
  TRACK 16 AUDIO
    TITLE "3:cjc114_5148"
    INDEX 01 00:15:34
  TRACK 17 AUDIO
    TITLE "0:"
    INDEX 01 00:16:51
  TRACK 18 AUDIO
    TITLE "4:cjc114_5149"
    INDEX 01 00:16:73
  TRACK 19 AUDIO
    TITLE "0:"
    INDEX 01 00:20:06
  TRACK 20 AUDIO
    TITLE "2:cjc114_5150"
    INDEX 01 00:20:51
  TRACK 21 AUDIO
    TITLE "0:"
    INDEX 01 00:21:57
  TRACK 22 AUDIO
    TITLE "3:cjc114_5151"
    INDEX 01 00:22:03
  TRACK 23 AUDIO
    TITLE "0:"
    INDEX 01 00:23:40
  TRACK 24 AUDIO
    TITLE "4:cjc114_5152"
    INDEX 01 00:23:63
  TRACK 25 AUDIO
    TITLE "0:"
    INDEX 01 00:27:57
  TRACK 26 AUDIO
    TITLE "2:cjc114_5153"
    INDEX 01 00:28:25
  TRACK 27 AUDIO
    TITLE "0:"
    INDEX 01 00:29:33
  TRACK 28 AUDIO
    TITLE "3:cjc114_5154"
    INDEX 01 00:29:54
  TRACK 29 AUDIO
    TITLE "0:"
    INDEX 01 00:30:50
  TRACK 30 AUDIO
    TITLE "4:cjc114_5155"
    INDEX 01 00:30:67
  TRACK 31 AUDIO
    TITLE "0:"
    INDEX 01 00:34:49
  TRACK 32 AUDIO
    TITLE "2:cjc114_5156"
    INDEX 01 00:35:15
  TRACK 33 AUDIO
    TITLE "0:"
    INDEX 01 00:36:42
  TRACK 34 AUDIO
    TITLE "3:cjc114_5157"
    INDEX 01 00:36:62
  TRACK 35 AUDIO
    TITLE "0:"
    INDEX 01 00:38:33
  TRACK 36 AUDIO
    TITLE "4:cjc114_5158"
    INDEX 01 00:38:55
  TRACK 37 AUDIO
    TITLE "0:"
    INDEX 01 00:42:66
  TRACK 38 AUDIO
    TITLE "2:cjc114_5159"
    INDEX 01 00:43:31
  TRACK 39 AUDIO
    TITLE "0:"
    INDEX 01 00:44:56
  TRACK 40 AUDIO
    TITLE "3:cjc114_5160"
    INDEX 01 00:45:04
  TRACK 41 AUDIO
    TITLE "0:"
    INDEX 01 00:46:25
  TRACK 42 AUDIO
    TITLE "4:cjc114_5161"
    INDEX 01 00:46:43
  TRACK 43 AUDIO
    TITLE "0:"
    INDEX 01 00:51:03
  TRACK 44 AUDIO
    TITLE "2:cjc114_5162"
    INDEX 01 00:51:48
  TRACK 45 AUDIO
    TITLE "0:"
    INDEX 01 00:52:57
  TRACK 46 AUDIO
    TITLE "3:cjc114_5163"
    INDEX 01 00:53:08
  TRACK 47 AUDIO
    TITLE "0:"
    INDEX 01 00:54:44
  TRACK 48 AUDIO
    TITLE "4:cjc114_5164"
    INDEX 01 00:54:70
  TRACK 49 AUDIO
    TITLE "0:"
    INDEX 01 00:58:34
  TRACK 50 AUDIO
    TITLE "2:cjc114_5165"
    INDEX 01 00:59:00
  TRACK 51 AUDIO
    TITLE "0:"
    INDEX 01 01:00:08
  TRACK 52 AUDIO
    TITLE "3:cjc114_5166"
    INDEX 01 01:00:31
  TRACK 53 AUDIO
    TITLE "0:"
    INDEX 01 01:02:05
  TRACK 54 AUDIO
    TITLE "4:cjc114_5167"
    INDEX 01 01:02:28
  TRACK 55 AUDIO
    TITLE "0:"
    INDEX 01 01:06:18
  TRACK 56 AUDIO
    TITLE "2:cjc114_5168"
    INDEX 01 01:06:63
  TRACK 57 AUDIO
    TITLE "0:"
    INDEX 01 01:07:74
  TRACK 58 AUDIO
    TITLE "3:cjc114_5169"
    INDEX 01 01:08:19
  TRACK 59 AUDIO
    TITLE "0:"
    INDEX 01 01:09:40
  TRACK 60 AUDIO
    TITLE "4:cjc114_5170"
    INDEX 01 01:09:57
  TRACK 61 AUDIO
    TITLE "0:"
    INDEX 01 01:12:26
  TRACK 62 AUDIO
    TITLE "2:cjc114_5171"
    INDEX 01 01:12:71
  TRACK 63 AUDIO
    TITLE "0:"
    INDEX 01 01:14:02
  TRACK 64 AUDIO
    TITLE "3:cjc114_5172"
    INDEX 01 01:14:25
  TRACK 65 AUDIO
    TITLE "0:"
    INDEX 01 01:15:72
  TRACK 66 AUDIO
    TITLE "4:cjc114_5173"
    INDEX 01 01:16:16
  TRACK 67 AUDIO
    TITLE "0:"
    INDEX 01 01:19:13
  TRACK 68 AUDIO
    TITLE "2:cjc114_5174"
    INDEX 01 01:19:58
  TRACK 69 AUDIO
    TITLE "0:"
    INDEX 01 01:21:02
  TRACK 70 AUDIO
    TITLE "3:cjc114_5175"
    INDEX 01 01:21:20
  TRACK 71 AUDIO
    TITLE "0:"
    INDEX 01 01:22:33
  TRACK 72 AUDIO
    TITLE "4:cjc114_5176"
    INDEX 01 01:22:50
  TRACK 73 AUDIO
    TITLE "0:"
    INDEX 01 01:25:41
  TRACK 74 AUDIO
    TITLE "2:cjc114_5177"
    INDEX 01 01:26:09
  TRACK 75 AUDIO
    TITLE "0:"
    INDEX 01 01:27:48
  TRACK 76 AUDIO
    TITLE "3:cjc114_5178"
    INDEX 01 01:27:65
  TRACK 77 AUDIO
    TITLE "0:"
    INDEX 01 01:29:13
  TRACK 78 AUDIO
    TITLE "4:cjc114_5179"
    INDEX 01 01:29:33
  TRACK 79 AUDIO
    TITLE "0:"
    INDEX 01 01:33:07
  TRACK 80 AUDIO
    TITLE "2:cjc114_5180"
    INDEX 01 01:33:50
  TRACK 81 AUDIO
    TITLE "0:"
    INDEX 01 01:34:67
  TRACK 82 AUDIO
    TITLE "3:cjc114_5181"
    INDEX 01 01:35:14
  TRACK 83 AUDIO
    TITLE "0:"
    INDEX 01 01:36:33
  TRACK 84 AUDIO
    TITLE "4:cjc114_5182"
    INDEX 01 01:36:54
  TRACK 85 AUDIO
    TITLE "0:"
    INDEX 01 01:40:05
  TRACK 86 AUDIO
    TITLE "2:cjc114_5183"
    INDEX 01 01:40:46
  TRACK 87 AUDIO
    TITLE "0:"
    INDEX 01 01:41:50
  TRACK 88 AUDIO
    TITLE "3:cjc114_5184"
    INDEX 01 01:41:67
  TRACK 89 AUDIO
    TITLE "0:"
    INDEX 01 01:43:00
  TRACK 90 AUDIO
    TITLE "4:cjc114_5185"
    INDEX 01 01:43:21
  TRACK 91 AUDIO
    TITLE "0:"
    INDEX 01 01:46:08
  TRACK 92 AUDIO
    TITLE "2:cjc114_5186"
    INDEX 01 01:46:47
  TRACK 93 AUDIO
    TITLE "0:"
    INDEX 01 01:47:64
  TRACK 94 AUDIO
    TITLE "3:cjc114_5187"
    INDEX 01 01:48:09
  TRACK 95 AUDIO
    TITLE "0:"
    INDEX 01 01:49:14
  TRACK 96 AUDIO
    TITLE "4:cjc114_5188"
    INDEX 01 01:49:33
  TRACK 97 AUDIO
    TITLE "0:"
    INDEX 01 01:53:25
